<svg version="1.2" xmlns="http://www.w3.org/2000/svg" viewBox="0 0 512 512" width="512" height="512">
	<title>up_icon</title>
	<style>
		.s0 { fill: #242061 } 
		.s1 { fill: #5dbdfd } 
	</style>
	<g id="&lt;Group&gt;">
		<g id="&lt;Group&gt;">
			<path id="&lt;Path&gt;" class="s0" d="m260.2 1.6c-4.1 0-7.9 3.2-7.9 7.9v18.9c-31.2 0.5-61.4 6.9-90 19-28.7 12.1-54.6 29.5-76.7 51.7-22.2 22.2-39.6 48-51.8 76.8-12.6 29.7-19 61.3-19 93.9 0 18.5 2.1 36.6 6.1 54.3 0.9 3.7 4.3 6.2 7.9 6.2q1.1 0 2.2-0.3c4.2-1.2 6.7-5.4 5.7-9.6-3.8-16.5-5.7-33.4-5.7-50.6 0-30.4 6-59.9 17.7-87.6 11.4-26.9 27.6-51 48.3-71.7 20.7-20.6 44.8-36.9 71.6-48.2 26.6-11.3 54.7-17.2 83.7-17.7v18.8c0 4.7 3.8 7.9 7.9 7.9 1.8 0 3.6-0.6 5.1-2l30.6-26.9c3.5-3.2 3.5-8.7 0-11.8l-30.6-27c-1.5-1.3-3.3-2-5.1-2z"/>
			<path id="&lt;Compound Path&gt;" fill-rule="evenodd" class="s0" d="m37 348.9c-3.6 0-6.9 2.5-7.7 6.3l-8.1 39.9c-1 5.2 3.1 9.5 7.7 9.5 1.3 0 2.7-0.4 4-1.1l16.3-9.4c10.1 16.8 22.3 32.4 36.4 46.5 22.1 22.1 48 39.6 76.7 51.7 29.8 12.6 61.4 19 94 19 32.6 0 64.2-6.4 94-19 26.2-11.1 49.9-26.5 70.7-45.9 3.3-3.1 3.4-8.3 0.2-11.6-1.6-1.6-3.6-2.4-5.7-2.4-2 0-4 0.7-5.6 2.2-19.3 18.1-41.5 32.5-65.9 42.8-27.8 11.8-57.3 17.7-87.7 17.7-30.4 0-59.9-5.9-87.7-17.7-26.8-11.3-50.9-27.6-71.6-48.3-13.1-13-24.4-27.5-33.8-43.1l16.4-9.5c5.8-3.4 4.9-12.1-1.5-14.2l-38.6-13q-1.3-0.4-2.5-0.4zm390.8 104.8zm-372.8-93.3z"/>
			<path id="&lt;Path&gt;" class="s0" d="m325 38.7c-3.7 0-7.1 2.6-7.9 6.4-0.8 4.1 1.6 8.1 5.6 9.4q10.8 3.3 21.3 7.8c26.8 11.3 50.9 27.6 71.6 48.2 20.7 20.7 36.9 44.8 48.3 71.7 11.7 27.7 17.7 57.2 17.7 87.6 0 30.5-6 60-17.7 87.7q-4.7 11.1-10.5 21.5l-16.3-9.4c-1.3-0.8-2.7-1.1-4-1.1-4.6 0-8.7 4.2-7.7 9.4l8.1 40c0.8 3.7 4.1 6.3 7.7 6.3q1.3 0 2.5-0.4l38.6-13c6.5-2.2 7.3-10.9 1.5-14.3l-16.4-9.4q6.3-11.3 11.4-23.3c12.6-29.7 19-61.4 19-94 0-32.6-6.4-64.2-19-93.9-12.2-28.8-29.6-54.6-51.8-76.8-22.1-22.2-48-39.6-76.7-51.7q-11.3-4.8-22.9-8.4-1.2-0.3-2.4-0.3z"/>
		</g>
		<path id="&lt;Path&gt;" class="s1" d="m224 365.4c-5 0-9.8-2.1-13.2-5.9l-67.3-74.5c-6.6-7.2-6-18.5 1.3-25.1 7.3-6.6 18.5-6 25.1 1.3l54.1 59.9 113.3-125.4c6.6-7.3 17.9-7.8 25.1-1.2 7.3 6.6 7.9 17.8 1.3 25.1l-126.5 139.9c-3.3 3.8-8.1 5.9-13.2 5.9z"/>
	</g>
</svg>