<svg version="1.2" xmlns="http://www.w3.org/2000/svg" viewBox="0 0 512 512" width="512" height="512"><style>.a{fill:#242061}.b{fill:#5dbdfd}</style><path fill-rule="evenodd" class="a" d="m85 128v21h-11c-7.4 0-12 0.5-14.2 1.4-2 0.9-4 2.9-5 5-1.7 3.4-1.8 12.5-1.8 292.6h406v-144.5c0-135.6-0.1-144.7-1.7-148.1-1.1-2.1-3.1-4.1-5-5-2.2-0.9-6.9-1.4-25.3-1.4v-21l14.8 0.3c12.7 0.3 15.3 0.6 19.2 2.5 2.5 1.2 6.1 3.5 8 5 2 1.6 5.1 5.8 10.5 15.7l0.5 296.5 26.2 0.5 2.9 3.3c2.3 2.5 2.9 4.1 2.9 7.7 0 2.5-0.5 6.9-1.1 9.8-0.6 2.8-2.7 8.6-4.6 12.7-2.6 5.3-5.5 9.4-10.2 14.1-3.6 3.6-9 7.9-12.1 9.4-3 1.5-8 4.7-11 5.7-5.3 1.7-14.4 0.8-428.5 0.8l-7-2.5c-3.8-1.4-9.4-4-12.3-5.8-3-1.8-7.7-5.7-10.5-8.7-2.9-3.1-6.6-8.3-8.3-11.5-1.8-3.3-4-8.9-4.9-12.5-0.9-3.6-1.5-8.8-1.3-11.7 0.3-4.1 0.9-5.8 3.1-8 2.7-2.7 3-2.8 28.7-3.3l0.5-296.5 2.5-5c1.4-2.7 4.3-6.8 6.5-9 2.2-2.2 5.8-4.9 8-5.9 2.2-1.1 5.4-2.3 7-2.7 1.7-0.4 8.8-0.7 28.5-0.9zm-58.6 347.8c1.3 2 3.7 4.9 5.3 6.4 1.5 1.5 5.5 3.9 8.8 5.5l6 2.8h419c7.8-3.6 11.6-5.8 13.5-7.3 1.9-1.5 4.7-4.7 6.2-7.2 1.6-2.5 2.8-5.1 2.8-5.8 0-0.9-19.5-1.2-94.5-1.2h-94.5v11h-86v-11c-177.8 0-189 0.2-189 1.5 0 0.8 1.1 3.2 2.4 5.2z"/><path fill-rule="evenodd" class="b" d="m199.2 5l182 0.1 6 2.8c3.3 1.6 7.7 4.8 9.8 7 2 2.3 4.7 6 8.2 12.6v339l-2.3 4.3c-1.2 2.3-3.9 6-6 8.3-2 2.2-6.2 5.3-14.7 9.4l-93.5 0.5v-21h43c36 0 43.6-0.2 46.5-1.5 2-0.8 4.2-2.8 5-4.5 1.3-2.6 1.5-23 1.5-165.3 0-160.3 0-162.2-2-165.4-1.3-2.2-3.2-3.6-5.8-4.3-2.5-0.7-30.2-1-162.7-0.5l-0.5 31c-0.5 30.5-0.5 31.1-3 36-1.3 2.8-4.3 6.8-6.5 9-2.2 2.1-6.5 5-9.5 6.4-4.9 2.3-7 2.6-34 3.1v-22h12c6.6 0 13-0.5 14.2-1 1.3-0.6 3.1-2.4 4-4 1.6-2.6 1.8-5.8 1.8-43.5l-64 64v126.8c0 110.6 0.2 127.1 1.5 129.7 0.8 1.7 3 3.7 5 4.5 2.9 1.3 10.5 1.5 89.5 1.5v21l-93.5-0.5-5.5-2.7c-3-1.4-7.2-4.5-9.3-6.7-2-2.3-15.7-12.6-8.2-12.6 0.9 0 0.8-270-0.5-270zm100.5 43.1h21v21h-21zm42 0h22v21h-22zm21.5 42.5v21h-21l-0.2-9.4c-0.2-5.2 0-10.1 0.2-10.8 0.4-1.1 2.9-1.3 21-0.8zm-110.9 117.5h8.9l67 67-15 15-45.5-45.5-0.5 187h-21l-0.5-187-45.5 45.5-15-15z"/></svg>