<?xml version="1.0" encoding="utf-8"?>
<!-- Generator: Adobe Illustrator 22.0.0, SVG Export Plug-In . SVG Version: 6.00 Build 0)  -->
<svg version="1.1" id="Capa_1" xmlns="http://www.w3.org/2000/svg" xmlns:xlink="http://www.w3.org/1999/xlink" x="0px" y="0px"
	 viewBox="0 0 512 366.1" style="enable-background:new 0 0 512 366.1;" xml:space="preserve">
<style type="text/css">
	.st0{fill:#3EC2F9;}
</style>
<g>
	<g>
		<path class="st0" d="M196.4,289.4l0.1,28.1"/>
		<path class="st0" d="M216.6,303.5l0.2-34.9l-21.9-13.3c1,2.9,1.5,5.9,1.5,9.1c0,22.7,0,30.3,0,53"/>
		<path class="st0" d="M222,303.5"/>
	</g>
</g>
<g>
	<g>
		<circle class="st0" cx="186.6" cy="43.8" r="43.8"/>
	</g>
</g>
<g>
	<g>
		<path class="st0" d="M181,229.1c78,47.3,73.3,44.9,77.8,45.9c-9.5-14.1-7.5-32.3,3.6-44.1L208,198l-20.8-55.9l30.4,43.9l0.5-51.4
			c0.2-16.3-12.9-29.7-29.2-29.9c-36.5-0.6-54.7-0.8-58.8,0c-8.1,1.3-17.1,7.4-21.3,17.1c-18.2,47.7-35.4,95.9-43,130.1
			c-6,1-10.5,6.2-10.5,12.5v68c0,7,5.7,12.7,12.7,12.7h100.5c7,0,12.7-5.7,12.7-12.7v-68c0-5.6-3.6-10.3-8.6-12
			c0.3-3.1,0.6-6.5,0.8-10.1l-0.4-0.2l-5.2-3.1c-5.5-3.3-8.9-8.9-9.7-14.9c-0.9-7-8-60.1-9-67.8l23.3,62.5
			C174,223.1,177,226.7,181,229.1z M153.4,236.5L153.4,236.5c-0.4,5.6-0.8,10.8-1.2,15.2H86.7c5.2-23.1,11.8-49.1,19.1-71.8v56.6
			L153.4,236.5L153.4,236.5z"/>
	</g>
</g>
<g>
	<g>
		<circle class="st0" cx="364.9" cy="43.8" r="43.8"/>
	</g>
</g>
<g>
	<g>
		<path class="st0" d="M442.6,303.5c0,0,0.7-162.9,0.6-170.1c-0.2-16.3-13.6-29.5-29.9-29.3l-50.7,0.6
			c-16.3,0.2-29.4,13.6-29.2,29.9l0.5,51.4l30.4-43.9L343.5,198l-65.7,39.8c-9.6,5.8-12.7,18.3-6.9,27.9c5.8,9.6,18.3,12.7,27.9,6.9
			l71.8-43.4c3.9-2.4,6.9-6,8.5-10.3l23.3-62.5c-0.9,7.1-8,60.5-9,67.8c-1.5,11.1-9.6,14.8-15.3,18.2l-70.4,61.1"/>
	</g>
</g>
</svg>
