<svg id="Layer_1" data-name="Layer 1" xmlns="http://www.w3.org/2000/svg" viewBox="0 0 524.12 490.35"><defs><style>.cls-1{fill:none;stroke-width:12px;}.cls-1,.cls-2{stroke:#3ec2f9;stroke-miterlimit:10;}.cls-2{fill:#3ec2f9;stroke-width:5px;}</style></defs><title>outteam-icon</title><path class="cls-1" d="M262.79,202.55a5.42,5.42,0,0,0-5.45,5.46v44.27L220.2,276.41a5.45,5.45,0,0,0-1.58,7.56,5.52,5.52,0,0,0,7.56,1.68l36.61-23.82,36.62,23.82a5.23,5.23,0,0,0,2.94.84A5.37,5.37,0,0,0,307,284a5.44,5.44,0,0,0-1.57-7.56l-37.14-24.13V208A5.49,5.49,0,0,0,262.79,202.55Z" transform="translate(0 -1.48)"/><path class="cls-1" d="M407.27,428.55l-37.14-24.14V360.14a5.46,5.46,0,0,0-10.92,0v44.27l-37.14,24.14a5.43,5.43,0,0,0-1.57,7.55,5.51,5.51,0,0,0,7.55,1.68L364.67,414l36.62,23.82a5.22,5.22,0,0,0,2.93.84,5.5,5.5,0,0,0,3-10.07Z" transform="translate(0 -1.48)"/><path class="cls-1" d="M203.52,428.55l-37.15-24.14V360.14a5.46,5.46,0,1,0-10.91,0v44.27l-37.14,24.14a5.43,5.43,0,0,0-1.57,7.55,5.51,5.51,0,0,0,7.55,1.68L160.92,414l36.62,23.82a5.22,5.22,0,0,0,2.93.84,5.5,5.5,0,0,0,3.05-10.07Z" transform="translate(0 -1.48)"/><path class="cls-1" d="M300.56,143.69A109.81,109.81,0,0,1,280.63,134l-9.55,30.32-1.36,4.09-4.3-12.17c9.86-13.74-.74-14.37-2.63-14.47h0c-1.88,0-12.48.62-2.62,14.47l-4.3,12.17-1.36-4.09L245,134A118.43,118.43,0,0,1,225,143.69c-13.74,4.93-12.9,16.27-13.11,37.46H313.68C313.36,160,314.2,148.73,300.56,143.69Z" transform="translate(0 -1.48)"/><path class="cls-1" d="M241.39,114.84C242.54,122,248,131,257,134.25a17.78,17.78,0,0,0,11.44,0C277.38,131,283,122,284.09,115c1.16-.11,2.73-1.79,4.51-7.77,2.31-8.18-.1-9.44-2.2-9.23a19,19,0,0,0,.94-3.36c3.57-21.19-6.92-21.93-6.92-21.93a16.5,16.5,0,0,0-6.29-5.87,21.22,21.22,0,0,0-12.91-2.73,20.26,20.26,0,0,0-5.14,1h0a20.58,20.58,0,0,0-5.67,2.93,32.29,32.29,0,0,0-5.87,4.83,22.88,22.88,0,0,0-6.3,21.82h0a19.88,19.88,0,0,0,.95,3.36c-2.1-.21-4.51,1-2.21,9.23C238.66,113.06,240.24,114.74,241.39,114.84Z" transform="translate(0 -1.48)"/><path class="cls-1" d="M403.07,296.35a109.37,109.37,0,0,1-19.93-9.65L373.59,317l-1.37,4.09-4.3-12.17c9.86-13.74-.73-14.37-2.62-14.48h0c-1.89,0-12.49.63-2.62,14.48l-4.31,12.17L357,317l-9.55-30.32a119.49,119.49,0,0,1-19.93,9.65c-13.75,4.93-12.91,16.26-13.12,37.46H416.18C416,312.61,416.81,301.28,403.07,296.35Z" transform="translate(0 -1.48)"/><path class="cls-1" d="M344,267.5c1.15,7.13,6.61,16.15,15.63,19.41a17.78,17.78,0,0,0,11.44,0c8.92-3.26,14.58-12.28,15.63-19.31,1.16-.1,2.73-1.78,4.51-7.76,2.31-8.19-.1-9.44-2.2-9.23a20.37,20.37,0,0,0,.94-3.36c3.57-21.2-6.92-21.93-6.92-21.93a16.48,16.48,0,0,0-6.29-5.88,21.16,21.16,0,0,0-12.91-2.72,20.26,20.26,0,0,0-5.14.94h0A20.88,20.88,0,0,0,353,220.6a32.23,32.23,0,0,0-5.87,4.82,23.88,23.88,0,0,0-6.3,11,23.62,23.62,0,0,0,0,10.81h0a20.42,20.42,0,0,0,.95,3.36c-2.1-.21-4.51,1-2.21,9.23C341.17,265.71,342.74,267.39,344,267.5Z" transform="translate(0 -1.48)"/><path class="cls-1" d="M198,295.72A109.81,109.81,0,0,1,178,286.07l-9.55,30.32-1.36,4.09-4.3-12.17c9.86-13.74-.74-14.37-2.63-14.48h0c-1.88,0-12.48.63-2.62,14.48l-4.3,12.17-1.36-4.09-9.55-30.32a119.38,119.38,0,0,1-19.94,9.65c-13.74,4.93-12.9,16.26-13.11,37.46H211.07C210.75,312.09,211.59,300.76,198,295.72Z" transform="translate(0 -1.48)"/><path class="cls-1" d="M138.78,266.87c1.16,7.13,6.61,16.15,15.63,19.41a17.78,17.78,0,0,0,11.44,0C174.77,283,180.43,274,181.48,267c1.16-.1,2.73-1.78,4.51-7.76,2.31-8.19-.1-9.44-2.2-9.23a20.42,20.42,0,0,0,1-3.36c3.56-21.2-6.93-21.93-6.93-21.93a16.48,16.48,0,0,0-6.29-5.88,21.16,21.16,0,0,0-12.91-2.72,20.26,20.26,0,0,0-5.14.94h0A20.88,20.88,0,0,0,147.8,220a31.88,31.88,0,0,0-5.87,4.83,22.86,22.86,0,0,0-6.3,21.82h0a20.42,20.42,0,0,0,1,3.36c-2.1-.21-4.51,1-2.21,9.23C136.05,265.08,137.63,266.76,138.78,266.87Z" transform="translate(0 -1.48)"/><path class="cls-1" d="M504.94,448.38A110.18,110.18,0,0,1,485,438.72L475.46,469l-1.36,4.1L469.8,461c9.86-13.75-.74-14.38-2.63-14.48h0c-1.88,0-12.48.63-2.62,14.48l-4.3,12.17-1.36-4.1-9.55-30.32a118.85,118.85,0,0,1-19.94,9.66c-13.74,4.93-12.9,16.26-13.11,37.45H518.06C517.85,464.64,518.69,453.41,504.94,448.38Z" transform="translate(0 -1.48)"/><path class="cls-1" d="M445.88,419.52c1.15,7.14,6.61,16.16,15.63,19.41a17.75,17.75,0,0,0,11.43,0c8.92-3.25,14.59-12.27,15.64-19.3,1.15-.11,2.73-1.79,4.51-7.77,2.31-8.18-.11-9.44-2.2-9.23a19.84,19.84,0,0,0,.94-3.36c3.57-21.19-6.92-21.92-6.92-21.92a16.56,16.56,0,0,0-6.3-5.88,21.17,21.17,0,0,0-12.9-2.73,20.34,20.34,0,0,0-5.15.95h0a20.94,20.94,0,0,0-5.66,2.93,32.35,32.35,0,0,0-5.88,4.83,23.9,23.9,0,0,0-6.29,11,23.3,23.3,0,0,0,0,10.8h0a19.84,19.84,0,0,0,.94,3.36c-2.1-.21-4.51,1.05-2.2,9.23C443,417.74,444.62,419.42,445.88,419.52Z" transform="translate(0 -1.48)"/><path class="cls-1" d="M299.83,447.85a109.37,109.37,0,0,1-19.93-9.65l-9.55,30.32L269,472.61l-4.3-12.17c9.86-13.74-.73-14.37-2.62-14.48h0c-1.89,0-12.49.63-2.62,14.48l-4.3,12.17-1.37-4.09-9.55-30.32a119.49,119.49,0,0,1-19.93,9.65c-13.75,4.93-12.91,16.26-13.12,37.46H312.94C312.63,464.11,313.47,452.89,299.83,447.85Z" transform="translate(0 -1.48)"/><path class="cls-1" d="M236.25,411.23c1.68,6,3.25,7.66,4.51,7.77,1.16,7.13,6.61,16.16,15.63,19.41a17.78,17.78,0,0,0,11.44,0c8.92-3.25,14.58-12.28,15.63-19.31,1.16-.1,2.73-1.78,4.51-7.76,2.31-8.18-.1-9.44-2.2-9.23a20.42,20.42,0,0,0,1-3.36c3.56-21.19-6.93-21.93-6.93-21.93A16.42,16.42,0,0,0,273.5,371a21.08,21.08,0,0,0-12.91-2.73,20.26,20.26,0,0,0-5.14.94h0a20.88,20.88,0,0,0-5.67,2.94,31.88,31.88,0,0,0-5.87,4.83,22.86,22.86,0,0,0-6.3,21.82h0a20.42,20.42,0,0,0,.95,3.36C236.35,401.79,233.84,403.05,236.25,411.23Z" transform="translate(0 -1.48)"/><path class="cls-1" d="M94.61,447.85a109.81,109.81,0,0,1-19.93-9.65l-9.55,30.32-1.37,4.09-4.19-12.06c9.86-13.75-.74-14.38-2.63-14.48h0c-1.88,0-12.48.63-2.62,14.48L50,472.72l-1.36-4.1L39.11,438.3A118.85,118.85,0,0,1,19.17,448c-13.74,4.93-12.9,16.26-13.11,37.45H107.73C107.52,464.11,108.35,452.89,94.61,447.85Z" transform="translate(0 -1.48)"/><path class="cls-1" d="M35.54,419c1.16,7.13,6.61,16.16,15.63,19.41a17.78,17.78,0,0,0,11.44,0c8.92-3.25,14.58-12.28,15.63-19.31,1.16-.1,2.73-1.78,4.51-7.76,2.31-8.18-.1-9.44-2.2-9.23a20.42,20.42,0,0,0,1-3.36c3.56-21.19-6.93-21.93-6.93-21.93A16.42,16.42,0,0,0,68.28,371a21.08,21.08,0,0,0-12.91-2.73,20.26,20.26,0,0,0-5.14.94h0a20.88,20.88,0,0,0-5.67,2.94,31.88,31.88,0,0,0-5.87,4.83,22.86,22.86,0,0,0-6.3,21.82h0a20.42,20.42,0,0,0,1,3.36c-2.1-.21-4.51,1.05-2.2,9.23C32.71,417.21,34.28,418.89,35.54,419Z" transform="translate(0 -1.48)"/><path class="cls-2" d="M467.57,63.07l25.07-36.48a2.36,2.36,0,0,0-1.94-3.7H419.79V13.44a2.37,2.37,0,0,0-2.37-2.37H367.79V6.35a2.37,2.37,0,1,0-4.73,0V213.44a2.37,2.37,0,0,0,4.73,0V84.35h26.06a11.7,11.7,0,0,0-2.43,7.09,11.84,11.84,0,0,0,11.82,11.82H490.7a2.37,2.37,0,0,0,1.94-3.71ZM369.79,18.5h43.27V76.92H369.79Zm36.1,77.9a6.63,6.63,0,0,1,0-13.25h13.19a2.2,2.2,0,0,0,2.2-2.21V30.11h61.78L461.24,62a2.23,2.23,0,0,0,0,2.5L483.06,96.4Z" transform="translate(0 -1.48)"/></svg>